<svg width="0" height="0" fill="none" style="visibility: hidden; position: absolute;" aria-hidden="true">
    <symbol id="menu" xmlns="http://www.w3.org/2000/svg" width="" height="" viewBox="0 0 24 24" fill="" stroke="currentColor" stroke-width="2" stroke-linecap="round" stroke-linejoin="round" class="lucide lucide-align-justify-icon lucide-align-justify">
        <path d="M3 12h18"/>
        <path d="M3 18h18"/>
        <path d="M3 6h18"/>
    </symbol>
    <symbol id="ball" width="40" height="41" viewBox="0 0 40 41" fill="none" xmlns="http://www.w3.org/2000/svg">
        <path d="M19.9214 1.2832C30.4083 1.2832 38.9761 10.029 38.9761 20.7822C38.9761 31.5354 30.4083 40.2812 19.9214 40.2812C9.43469 40.281 0.867676 31.5353 0.867676 20.7822C0.867676 10.0292 9.43469 1.28344 19.9214 1.2832ZM23.8901 25.792C20.5085 26.7759 16.971 29.3276 14.2905 31.7881C12.9957 32.9664 11.9501 34.0857 11.1108 35.002L10.6987 35.4521L11.2212 35.7676C13.7667 37.3019 16.7232 38.2041 19.9126 38.2041C22.3061 38.2041 24.5637 37.6986 26.6255 36.8076L26.9741 36.6572L26.9224 36.2812C26.4381 32.7077 25.584 29.3018 24.5034 26.1123L24.3501 25.6582L23.8901 25.792ZM35.8188 25.1699C34.3588 25.0051 32.5073 24.8389 30.1597 24.9268H30.1538C29.1428 24.9755 28.0665 25.0728 26.9722 25.2188L26.3774 25.2988L26.563 25.8691C27.4867 28.713 28.251 31.7256 28.7446 34.8594L28.8687 35.6484L29.5239 35.1914C32.7099 32.9728 35.12 29.6759 36.2427 25.8057L36.4077 25.2363L35.8188 25.1699ZM20.0864 16.7725C12.3737 18.9636 5.57893 18.8969 3.4624 18.8115L2.97998 18.792L2.94287 19.2725C2.90552 19.7596 2.8667 20.2601 2.8667 20.792C2.86674 26.0256 5.13082 30.6977 8.70166 33.8945L9.07471 34.2285L9.40771 33.8555C10.3028 32.8541 11.5037 31.5783 12.9634 30.2471L12.9653 30.2451C15.7116 27.7135 19.2453 25.035 23.0942 23.8662L23.6108 23.709L23.4146 23.2061C22.553 20.9984 21.6259 18.946 20.6704 17.0303L20.4849 16.6592L20.0864 16.7725ZM32.0474 9.4082C30.3913 11.4293 27.5164 14.0547 22.9644 15.8359L22.4575 16.0342L22.6978 16.5225C23.6792 18.5205 24.631 20.6499 25.4985 22.9492L25.6421 23.3281L26.0425 23.2666C29.3347 22.7639 32.3781 22.7634 34.6772 22.9434V22.9443C35.3549 23.0005 35.7418 23.0646 36.2944 23.1426L36.8062 23.2148L36.8618 22.7012C36.9293 22.0706 36.9673 21.4368 36.9673 20.7822C36.9673 16.4287 35.39 12.4604 32.8169 9.40332L32.4292 8.94238L32.0474 9.4082ZM12.7515 4.99414C8.25543 7.11499 4.84903 11.1664 3.50439 16.1133L3.33838 16.7236L3.97119 16.7441C6.44709 16.8221 12.3657 16.705 18.9233 14.9482L19.5415 14.7822L19.231 14.2227C16.6878 9.63944 14.5491 6.70594 13.3638 5.14453L13.1187 4.82129L12.7515 4.99414ZM19.9214 3.36035C18.5023 3.36039 17.1264 3.55909 15.8237 3.88477L15.0972 4.06641L15.5435 4.66797C16.9341 6.53884 18.9323 9.36472 21.3247 13.79L21.5308 14.1719L21.938 14.0205C26.4651 12.3395 29.1786 9.76846 30.6636 7.90234L30.9692 7.51758L30.5903 7.20508C27.675 4.79802 23.9721 3.36035 19.9214 3.36035Z" fill="#070707" stroke="#070707"/>
    </symbol>
    <symbol id="be" width="41" height="40" viewBox="0 0 41 40" fill="none" xmlns="http://www.w3.org/2000/svg">
        <g clip-path="url(#clip0_386030_148__be)">
            <path d="M34.2354 0H5.87564C2.63578 0 0 2.62848 0 5.85938V34.1406C0 37.3715 2.63578 40 5.87564 40H34.2354C37.4753 40 40.111 37.3715 40.111 34.1406V5.85938C40.111 2.62848 37.4753 0 34.2354 0ZM37.7608 34.1406C37.7608 36.0791 36.1793 37.6562 34.2354 37.6562H5.87564C3.93178 37.6562 2.35026 36.0791 2.35026 34.1406V5.85938C2.35026 3.9209 3.93178 2.34375 5.87564 2.34375H34.2354C36.1793 2.34375 37.7608 3.9209 37.7608 5.85938V34.1406Z" fill="#070707" stroke="#070707" stroke-width="0.5"/>
            <path d="M18.9651 16.4844C18.9651 13.8995 16.8566 11.7969 14.2646 11.7969H7.21387V28.2031H14.2646C16.8566 28.2031 18.9651 26.1005 18.9651 23.5156C18.9651 22.1167 18.3467 20.8597 17.3686 20C18.3467 19.1403 18.9651 17.8833 18.9651 16.4844ZM16.6149 23.5156C16.6149 24.808 15.5606 25.8594 14.2646 25.8594H9.56412V21.1719H14.2646C15.5606 21.1719 16.6149 22.2232 16.6149 23.5156ZM9.56412 18.8281V14.1406H14.2646C15.5606 14.1406 16.6149 15.192 16.6149 16.4844C16.6149 17.7768 15.5606 18.8281 14.2646 18.8281H9.56412Z" fill="#070707" stroke="#070707" stroke-width="0.5"/>
            <path d="M27.1911 16.4844C23.9512 16.4844 21.3154 19.1129 21.3154 22.3438C21.3154 25.5746 23.9512 28.2031 27.1911 28.2031C29.2821 28.2031 31.2321 27.081 32.2799 25.2744L30.2455 24.1006C29.6163 25.1855 28.4458 25.8594 27.1911 25.8594C25.6588 25.8594 24.3521 24.8798 23.867 23.5156H33.0667V22.3438C33.0667 19.1129 30.4309 16.4844 27.1911 16.4844ZM23.867 21.1719C24.3521 19.8077 25.6588 18.8281 27.1911 18.8281C28.7233 18.8281 30.03 19.8077 30.5151 21.1719H23.867Z" fill="#070707" stroke="#070707" stroke-width="0.5"/>
            <path d="M22.4905 11.7969H31.8915V14.1406H22.4905V11.7969Z" fill="#070707" stroke="#070707" stroke-width="0.5"/>
        </g>
        <defs>
            <clipPath id="clip0_386030_148__be">
                <rect width="40.111" height="40" fill="white" transform="translate(0.0847168)"/>
            </clipPath>
        </defs>
    </symbol>
    <symbol id="in" width="41" height="41" viewBox="0 0 41 41" fill="none" xmlns="http://www.w3.org/2000/svg">
        <path d="M34.5749 0.642578H6.17579C2.93143 0.642578 0.291992 3.27494 0.291992 6.51061V34.8336C0.291992 38.0693 2.93143 40.7017 6.17579 40.7017H34.5749C37.8193 40.7017 40.4587 38.0693 40.4587 34.8336V6.51061C40.4587 3.27494 37.8193 0.642578 34.5749 0.642578ZM38.1052 34.8336C38.1052 36.775 36.5215 38.3544 34.5749 38.3544H6.17579C4.22923 38.3544 2.64551 36.775 2.64551 34.8336V6.51061C2.64551 4.56927 4.22923 2.98979 6.17579 2.98979H34.5749C36.5215 2.98979 38.1052 4.56927 38.1052 6.51061V34.8336Z" fill="#070707" stroke="#070707" stroke-width="0.5"/>
        <path d="M26.625 16.0098C27.5179 16.0358 28.3645 16.2371 29.127 16.7168C30.1041 17.3318 30.6996 18.2318 31.0488 19.3125C31.3211 20.155 31.4112 21.0251 31.4121 21.9062C31.4143 24.4448 31.4124 26.9839 31.4121 29.5225C31.4121 29.5672 31.4083 29.6115 31.4053 29.6631H27.124V22.4766C27.124 21.9791 27.0871 21.4871 26.9619 21.001C26.7026 19.9953 26.0117 19.521 25.2744 19.418C24.5385 19.3152 23.756 19.5822 23.3096 20.0596C22.8628 20.5375 22.569 21.0793 22.5566 21.749C22.5539 21.9059 22.5449 22.0657 22.5449 22.2236C22.544 24.6395 22.5439 27.0558 22.5439 29.4717V29.6621H18.2715V16.3281H22.542V18.1152L22.5518 18.1191C22.5625 18.1238 22.5744 18.1299 22.5859 18.1348L22.5967 18.1387L22.6045 18.1289C22.6349 18.0877 22.667 18.0467 22.6973 18.0049C23.1277 17.407 23.621 16.8779 24.2764 16.5205C25.0086 16.1209 25.8005 15.9859 26.625 16.0098Z" fill="#070707" stroke="#070707" stroke-width="0.0306072"/>
        <path d="M15.6111 16.3242V29.6709H11.3611V16.3242H15.6111Z" fill="#070707" stroke="#070707" stroke-width="0.0306072"/>
        <path d="M13.6689 9.67188C14.3391 9.67096 14.9111 9.90807 15.3154 10.3145C15.7197 10.7208 15.9576 11.297 15.96 11.9736C15.9621 12.6431 15.7226 13.2146 15.3125 13.6182C14.9025 14.0216 14.3208 14.2584 13.6377 14.2588C12.3053 14.2597 11.356 13.3077 11.3535 11.9688C11.3511 10.6291 12.3136 9.6738 13.6689 9.67188Z" fill="#070707" stroke="#070707" stroke-width="0.0306072"/>
    </symbol>
    <symbol id="instagram" width="40" height="41" viewBox="0 0 40 41" fill="none" xmlns="http://www.w3.org/2000/svg">
        <path d="M28.5706 1.2832C34.5351 1.2832 39.4182 6.26817 39.4182 12.3955V29.1689C39.4182 35.2965 34.5352 40.2812 28.5803 40.2812H12.1663C6.20037 40.2812 1.30983 35.3048 1.30981 29.1885V12.4053C1.30981 6.27849 6.20115 1.29297 12.1663 1.29297H12.6663V1.2832H28.5706ZM12.1663 3.36914C7.25362 3.36914 3.32872 7.40073 3.3186 12.4131V29.1982C3.3187 34.1843 7.24577 38.2148 12.1663 38.2148H28.5803C33.4835 38.2148 37.4094 34.1826 37.4094 29.1787V12.4053C37.4094 7.40104 33.4828 3.36914 28.5706 3.36914H12.1663ZM20.3733 10.5205C25.8777 10.5205 30.4026 15.1313 30.4026 20.7871C30.4025 26.4428 25.8777 31.0527 20.3733 31.0527C14.8689 31.0527 10.344 26.4428 10.344 20.7871C10.344 15.1314 14.8689 10.5205 20.3733 10.5205ZM20.3733 12.5967C15.9127 12.5967 12.3528 16.2535 12.3528 20.7871C12.3528 25.3206 15.9127 28.9775 20.3733 28.9775C24.8339 28.9775 28.3938 25.3207 28.3938 20.7871C28.3938 16.2535 24.8339 12.5967 20.3733 12.5967ZM32.4065 7.44531C32.9565 7.44531 33.4102 7.89273 33.4104 8.48242C33.4104 9.07235 32.9566 9.52051 32.4065 9.52051C31.8564 9.52042 31.4026 9.07229 31.4026 8.48242C31.4028 7.89279 31.8566 7.4454 32.4065 7.44531Z" fill="#070707" stroke="#070707"/>
    </symbol>
</svg>